<mxfile host="65bd71144e">
    <diagram id="AIDz-y88Evs7k-BP5fXi" name="Page-1">
        <mxGraphModel dx="1129" dy="871" grid="1" gridSize="10" guides="1" tooltips="1" connect="1" arrows="1" fold="1" page="1" pageScale="1" pageWidth="850" pageHeight="1100" math="0" shadow="0">
            <root>
                <mxCell id="0"/>
                <mxCell id="1" parent="0"/>
                <mxCell id="2" value="User" style="shape=umlActor;verticalLabelPosition=bottom;verticalAlign=top;html=1;outlineConnect=0;" parent="1" vertex="1">
                    <mxGeometry x="100" y="90" width="30" height="60" as="geometry"/>
                </mxCell>
                <mxCell id="4" value="" style="swimlane;startSize=0;" parent="1" vertex="1">
                    <mxGeometry x="210" y="70" width="560" height="470" as="geometry"/>
                </mxCell>
                <mxCell id="5" value="Kasir" style="whiteSpace=wrap;html=1;aspect=fixed;" parent="4" vertex="1">
                    <mxGeometry x="30" y="130" width="80" height="80" as="geometry"/>
                </mxCell>
                <mxCell id="6" value="" style="rounded=1;whiteSpace=wrap;html=1;" parent="4" vertex="1">
                    <mxGeometry x="190" y="50" width="320" height="60" as="geometry"/>
                </mxCell>
                <mxCell id="7" value="" style="rounded=1;whiteSpace=wrap;html=1;" parent="4" vertex="1">
                    <mxGeometry x="190" y="160" width="320" height="60" as="geometry"/>
                </mxCell>
                <mxCell id="8" value="" style="rounded=1;whiteSpace=wrap;html=1;" parent="4" vertex="1">
                    <mxGeometry x="190" y="270" width="320" height="60" as="geometry"/>
                </mxCell>
                <mxCell id="9" value="" style="rounded=1;whiteSpace=wrap;html=1;" parent="4" vertex="1">
                    <mxGeometry x="190" y="370" width="320" height="60" as="geometry"/>
                </mxCell>
                <mxCell id="14" value="Admin" style="shape=umlActor;verticalLabelPosition=bottom;verticalAlign=top;html=1;outlineConnect=0;" parent="4" vertex="1">
                    <mxGeometry x="55" y="220" width="30" height="60" as="geometry"/>
                </mxCell>
                <mxCell id="11" value="" style="swimlane;startSize=0;" parent="1" vertex="1">
                    <mxGeometry x="840" y="340" width="200" height="200" as="geometry"/>
                </mxCell>
                <mxCell id="15" value="Actor" style="shape=umlActor;verticalLabelPosition=bottom;verticalAlign=top;html=1;outlineConnect=0;" parent="11" vertex="1">
                    <mxGeometry x="40" y="90" width="30" height="60" as="geometry"/>
                </mxCell>
                <mxCell id="12" value="" style="shape=mxgraph.signs.transportation.truck_1;html=1;pointerEvents=1;fillColor=#008a00;strokeColor=#005700;verticalLabelPosition=bottom;verticalAlign=top;align=center;fontColor=#ffffff;" parent="1" vertex="1">
                    <mxGeometry x="1060" y="360" width="99" height="51" as="geometry"/>
                </mxCell>
                <mxCell id="13" value="" style="shape=mxgraph.signs.transportation.truck_1;html=1;pointerEvents=1;fillColor=#008a00;strokeColor=#005700;verticalLabelPosition=bottom;verticalAlign=top;align=center;fontColor=#ffffff;" parent="1" vertex="1">
                    <mxGeometry x="1060" y="430" width="99" height="51" as="geometry"/>
                </mxCell>
                <mxCell id="36" style="edgeStyle=none;html=1;entryX=0;entryY=0.5;entryDx=0;entryDy=0;fontColor=#FFFFFF;" edge="1" parent="1" source="27" target="41">
                    <mxGeometry relative="1" as="geometry">
                        <mxPoint x="360" y="735" as="targetPoint"/>
                    </mxGeometry>
                </mxCell>
                <mxCell id="27" value="Admin" style="shape=umlActor;verticalLabelPosition=bottom;verticalAlign=top;html=1;outlineConnect=0;" vertex="1" parent="1">
                    <mxGeometry x="210" y="680" width="30" height="60" as="geometry"/>
                </mxCell>
                <mxCell id="35" style="edgeStyle=none;html=1;entryX=0;entryY=1;entryDx=0;entryDy=0;fontColor=#FFFFFF;" edge="1" parent="1" source="28" target="41">
                    <mxGeometry relative="1" as="geometry">
                        <mxPoint x="360" y="750" as="targetPoint"/>
                    </mxGeometry>
                </mxCell>
                <mxCell id="38" style="edgeStyle=none;html=1;fontColor=#FFFFFF;entryX=0;entryY=0.5;entryDx=0;entryDy=0;" edge="1" parent="1" source="28" target="43">
                    <mxGeometry relative="1" as="geometry">
                        <mxPoint x="360" y="830" as="targetPoint"/>
                    </mxGeometry>
                </mxCell>
                <mxCell id="40" style="edgeStyle=none;html=1;entryX=0;entryY=0.5;entryDx=0;entryDy=0;fontColor=#FFFFFF;" edge="1" parent="1" source="28" target="44">
                    <mxGeometry relative="1" as="geometry">
                        <mxPoint x="360" y="910" as="targetPoint"/>
                    </mxGeometry>
                </mxCell>
                <mxCell id="28" value="User" style="shape=umlActor;verticalLabelPosition=bottom;verticalAlign=top;html=1;outlineConnect=0;" vertex="1" parent="1">
                    <mxGeometry x="210" y="800" width="30" height="60" as="geometry"/>
                </mxCell>
                <mxCell id="41" value="Login" style="ellipse;whiteSpace=wrap;html=1;fontColor=#FFFFFF;" vertex="1" parent="1">
                    <mxGeometry x="350" y="685" width="120" height="50" as="geometry"/>
                </mxCell>
                <mxCell id="43" value="Register" style="ellipse;whiteSpace=wrap;html=1;fontColor=#FFFFFF;" vertex="1" parent="1">
                    <mxGeometry x="350" y="760" width="120" height="50" as="geometry"/>
                </mxCell>
                <mxCell id="50" value="" style="edgeStyle=none;html=1;fontColor=#FFFFFF;" edge="1" parent="1" source="44" target="49">
                    <mxGeometry relative="1" as="geometry"/>
                </mxCell>
                <mxCell id="44" value="Lupa Password" style="ellipse;whiteSpace=wrap;html=1;fontColor=#FFFFFF;" vertex="1" parent="1">
                    <mxGeometry x="350" y="830" width="120" height="50" as="geometry"/>
                </mxCell>
                <mxCell id="52" value="" style="edgeStyle=none;html=1;fontColor=#FFFFFF;" edge="1" parent="1" source="49" target="51">
                    <mxGeometry relative="1" as="geometry"/>
                </mxCell>
                <mxCell id="49" value="OTPPassword" style="ellipse;whiteSpace=wrap;html=1;fontColor=#FFFFFF;" vertex="1" parent="1">
                    <mxGeometry x="500" y="830" width="120" height="50" as="geometry"/>
                </mxCell>
                <mxCell id="51" value="NewPassword" style="ellipse;whiteSpace=wrap;html=1;fontColor=#FFFFFF;" vertex="1" parent="1">
                    <mxGeometry x="640" y="830" width="120" height="50" as="geometry"/>
                </mxCell>
            </root>
        </mxGraphModel>
    </diagram>
</mxfile>